<?xml version="1.0" encoding="utf-8"?>
<svg viewBox="81.931 55.556 361.391 369.809" xmlns="http://www.w3.org/2000/svg">
  <circle style="fill: rgb(255, 255, 255);" cx="264.194" cy="241.121" r="189.242"/>
  <path d="M 459.8 227.913 C 459.8 283.351 437.287 333.637 400.961 369.963 C 364.635 406.289 314.349 428.802 258.911 428.802 C 203.473 428.802 153.187 406.289 116.861 369.963 C 80.535 333.637 58.022 283.351 58.022 227.913 C 58.022 172.475 80.535 122.189 116.861 85.863 C 153.187 49.537 203.473 27.024 258.911 27.024 C 314.349 27.024 364.635 49.537 400.961 85.863 C 437.287 122.189 459.8 172.475 459.8 227.913 Z M 400.254 86.57 C 364.054 50.37 314.145 28.024 258.911 28.024 C 203.677 28.024 153.768 50.37 117.568 86.57 C 81.368 122.77 59.022 172.679 59.022 227.913 C 59.022 283.147 81.368 333.056 117.568 369.256 C 153.768 405.456 203.677 427.802 258.911 427.802 C 314.145 427.802 364.054 405.456 400.254 369.256 C 436.454 333.056 458.8 283.147 458.8 227.913 C 458.8 172.679 436.454 122.77 400.254 86.57 Z" style="fill: none;"/>
  <path d="M 459.8 227.913 C 459.8 283.351 437.287 333.637 400.961 369.963 C 364.635 406.289 314.349 428.802 258.911 428.802 C 203.473 428.802 153.187 406.289 116.861 369.963 C 80.535 333.637 58.022 283.351 58.022 227.913 C 58.022 172.475 80.535 122.189 116.861 85.863 C 153.187 49.537 203.473 27.024 258.911 27.024 C 314.349 27.024 364.635 49.537 400.961 85.863 C 437.287 122.189 459.8 172.475 459.8 227.913 Z M 400.254 86.57 C 364.054 50.37 314.145 28.024 258.911 28.024 C 203.677 28.024 153.768 50.37 117.568 86.57 C 81.368 122.77 59.022 172.679 59.022 227.913 C 59.022 283.147 81.368 333.056 117.568 369.256 C 153.768 405.456 203.677 427.802 258.911 427.802 C 314.145 427.802 364.054 405.456 400.254 369.256 C 436.454 333.056 458.8 283.147 458.8 227.913 C 458.8 172.679 436.454 122.77 400.254 86.57 Z" style="fill: none;"/>
  <rect x="81.217" y="77.824" width="125.204" height="18.541" style="stroke-width: 12.0577; vector-effect: non-scaling-stroke;" transform="matrix(0.912549, 0.408967, 0, 1.095831, 107.814842, -11.019947)"/>
  <rect x="282.267" y="204.826" width="16.274" height="217.172" style="fill: rgb(216, 216, 216);" transform="matrix(0, 0, 0, 0.11511613070402393, 282.2669982910156, 181.24724823818542)"/>
  <path d="M 312.297 373.98 L 292.096 364.926 L 292.096 201.247 L 312.297 210.3 Z" style=""/>
  <rect x="81.217" y="77.825" width="125.204" height="18.541" style="" transform="matrix(0.912549, 0.408967, 0, 1.095831, 138.118774, 98.232353)"/>
  <path d="M 247.168 145.1 L 246.148 308.709 L 226.003 299.681 L 226.967 145.1 Z" style=""/>
</svg>